<?xml version="1.0" encoding="utf-8"?>
<!-- Generator: Adobe Illustrator 28.0.0, SVG Export Plug-In . SVG Version: 6.00 Build 0)  -->
<svg version="1.1" id="Layer_1" xmlns="http://www.w3.org/2000/svg" xmlns:xlink="http://www.w3.org/1999/xlink" x="0px" y="0px"
	 viewBox="0 0 372.5 66.3" style="enable-background:new 0 0 372.5 66.3;" xml:space="preserve">
<style type="text/css">
	.st0{display:none;fill:#101234;stroke:#C99537;stroke-width:2;stroke-miterlimit:10;}
	.st1{display:none;}
	.st2{display:inline;fill:#C99537;}
	.st3{font-family:'FolkPro-Medium-90ms-RKSJ-H';}
	.st4{font-size:37.61px;}
	.st5{display:inline;fill:none;stroke:#C99537;stroke-width:0.75;stroke-miterlimit:10;}
	.st6{fill:#FDCD0B;}
	.st7{fill:#111334;}
	.st8{fill:none;stroke:#101234;stroke-miterlimit:10;}
</style>
<path class="st0" d="M16.7,64.9L1.2,44L23.5,1H345c0,0,26.6,5.8,26.6,32.2S345,65.3,345,65.3L16.7,64.9L16.7,64.9L16.7,64.9z"/>
<g class="st1">
	<text transform="matrix(1 0 0 1 28.81 46.59)" class="st2 st3 st4">Upload Savestate</text>
	<text transform="matrix(1 0 0 1 28.81 46.59)" class="st5 st3 st4">Upload Savestate</text>
</g>
<path class="st6" d="M16.7,65.4L1.1,44.5l22.3-43h321.5c0,0,26.6,5.8,26.6,32.2s-26.6,32.2-26.6,32.2L16.7,65.4L16.7,65.4z"/>
<text transform="matrix(1 0 0 1 28.71 47.0275)" class="st7 st3 st4">Upload Savestate</text>
<text transform="matrix(1 0 0 1 28.71 47.0275)" class="st8 st3 st4">Upload Savestate</text>
</svg>
